<svg xmlns="http://www.w3.org/2000/svg" width="24" height="24" viewBox="0 0 24 24"><g fill="none" fill-rule="evenodd"><rect width="24" height="24"></rect><path stroke="#687176" stroke-linecap="round" stroke-linejoin="round" stroke-width="2" d="M3,21 L21,21"></path><path stroke="#687176" stroke-linecap="round" stroke-linejoin="round" stroke-width="2" d="M9.09845821,13.9160699 L9.09845821,13.9160699 C9.37778711,14.7037783 10.2049753,15.1552484 11.0185801,14.9640511 L16.0116442,13.7906797 C16.718708,13.6245195 17.157197,12.9166316 16.9910368,12.2095678 C16.9800062,12.1626291 16.9664025,12.1163326 16.9502874,12.0708879 L16.9502874,12.0708879 C16.6709585,11.2831795 15.8437703,10.8317094 15.0301656,11.0229067 L10.0371014,12.1962781 C9.33003765,12.3624383 8.89154864,13.0703262 9.05770882,13.77739 C9.06873942,13.8243287 9.0823431,13.8706252 9.09845821,13.9160699 Z"></path><path stroke="#687176" stroke-linecap="round" stroke-linejoin="round" stroke-width="2" d="M9.02437282,14.4934789 L7.35895013,14.727228 C6.20214471,14.8895904 5.05628608,14.3657035 4.42228186,13.3845822 L2.160222,9.88404537 C1.86047225,9.42018275 1.99351203,8.80115261 2.45737465,8.50140286 C2.52534451,8.45748049 2.59839471,8.42197123 2.67492242,8.3956542 L3.26130285,8.19400454 C3.99477228,7.94177261 4.8079412,8.13636269 5.34777884,8.69329506 L6.46072776,9.84148709 L16.4553227,7.02937219 C16.8702642,6.91262275 17.301285,7.15435523 17.4180344,7.5692968 C17.4373913,7.63809334 17.4472073,7.70922253 17.4472073,7.78069036 L18.9879198,7.78069036 C19.855585,7.78069036 20.6242816,8.34014779 20.891047,9.16578644 L20.9429053,9.32628791 C21.2201661,10.1844099 20.7589709,11.1064831 19.9060362,11.3993129 L17.4472073,12.2434789"></path></g></svg>